<?xml version="1.0" encoding="us-ascii" standalone="no"?><svg xmlns="http://www.w3.org/2000/svg" xmlns:xlink="http://www.w3.org/1999/xlink" contentStyleType="text/css" height="928px" preserveAspectRatio="none" style="width:1748px;height:928px;background:#FFFFFF;" version="1.1" viewBox="0 0 1748 928" width="1748px" zoomAndPan="magnify"><defs/><g><text fill="#000000" font-family="sans-serif" font-size="14" font-weight="bold" lengthAdjust="spacing" textLength="404.4375" x="664.7813" y="24.5332">BPMN Assistant &#8212; &#1076;&#1080;&#1072;&#1075;&#1088;&#1072;&#1084;&#1084;&#1072; &#1074;&#1072;&#1088;&#1080;&#1072;&#1085;&#1090;&#1086;&#1074; &#1080;&#1089;&#1087;&#1086;&#1083;&#1100;&#1079;&#1086;&#1074;&#1072;&#1085;&#1080;&#1103;</text><!--cluster SYS--><g id="cluster_SYS"><rect fill="#FAFBFD" height="721" rx="11" ry="11" style="stroke:#8FA3B8;stroke-width:1.0;" width="1563" x="163" y="201.1094"/><text fill="#000000" font-family="sans-serif" font-size="14" font-weight="bold" lengthAdjust="spacing" textLength="191" x="849" y="217.6426">&#1057;&#1080;&#1089;&#1090;&#1077;&#1084;&#1072; &#171;BPMN Assistant&#187;</text></g><!--cluster P_IN--><g id="cluster_P_IN"><rect fill="#FAFBFD" height="283" rx="11" ry="11" style="stroke:#8FA3B8;stroke-width:1.0;" width="234" x="195" y="253.1094"/><text fill="#000000" font-family="sans-serif" font-size="14" font-weight="bold" lengthAdjust="spacing" textLength="123" x="250.5" y="269.6426">&#1042;&#1093;&#1086;&#1076;&#1099; &#1074; &#1089;&#1080;&#1089;&#1090;&#1077;&#1084;&#1091;</text></g><!--cluster P_MAIN--><g id="cluster_P_MAIN"><rect fill="#FAFBFD" height="257" rx="11" ry="11" style="stroke:#8FA3B8;stroke-width:1.0;" width="1225" x="469" y="320.1094"/><text fill="#000000" font-family="sans-serif" font-size="14" font-weight="bold" lengthAdjust="spacing" textLength="179" x="992" y="336.6426">&#1054;&#1089;&#1085;&#1086;&#1074;&#1085;&#1086;&#1081; &#1088;&#1072;&#1073;&#1086;&#1095;&#1080;&#1081; &#1087;&#1086;&#1090;&#1086;&#1082;</text></g><!--cluster P_AUX--><g id="cluster_P_AUX"><rect fill="#FAFBFD" height="273" rx="11" ry="11" style="stroke:#8FA3B8;stroke-width:1.0;" width="235" x="1059" y="617.1094"/><text fill="#000000" font-family="sans-serif" font-size="14" font-weight="bold" lengthAdjust="spacing" textLength="202" x="1075.5" y="633.6426">&#1042;&#1089;&#1087;&#1086;&#1084;&#1086;&#1075;&#1072;&#1090;&#1077;&#1083;&#1100;&#1085;&#1099;&#1077; &#1076;&#1077;&#1081;&#1089;&#1090;&#1074;&#1080;&#1103;</text></g><g id="elem_UC_Template"><ellipse cx="312.2462" cy="435.1763" fill="#E8EEF7" rx="77.2462" ry="22.567" style="stroke:#3D5A80;stroke-width:0.5;"/><text fill="#1A2B3C" font-family="sans-serif" font-size="11" lengthAdjust="spacing" textLength="93" x="265.7462" y="430.7594">&#1047;&#1072;&#1075;&#1088;&#1091;&#1079;&#1080;&#1090;&#1100; &#1096;&#1072;&#1073;&#1083;&#1086;&#1085;</text><text fill="#1A2B3C" font-family="sans-serif" font-size="11" lengthAdjust="spacing" textLength="48" x="288.2462" y="444.5953">&#1087;&#1088;&#1086;&#1094;&#1077;&#1089;&#1089;&#1072;</text></g><g id="elem_UC_Import"><ellipse cx="311.8026" cy="320.1763" fill="#E8EEF7" rx="92.8026" ry="22.567" style="stroke:#3D5A80;stroke-width:0.5;"/><text fill="#1A2B3C" font-family="sans-serif" font-size="11" lengthAdjust="spacing" textLength="115" x="254.3026" y="315.7594">&#1048;&#1084;&#1087;&#1086;&#1088;&#1090;&#1080;&#1088;&#1086;&#1074;&#1072;&#1090;&#1100; BPMN</text><text fill="#1A2B3C" font-family="sans-serif" font-size="11" lengthAdjust="spacing" textLength="86" x="268.8026" y="329.5953">&#1080;&#1079; &#1092;&#1072;&#1081;&#1083;&#1072; (.bpmn)</text></g><g id="elem_UC_PoolLanes"><ellipse cx="594.0616" cy="476.2217" fill="#E8EEF7" rx="101.0616" ry="22.6123" style="stroke:#3D5A80;stroke-width:0.5;"/><text fill="#1A2B3C" font-family="sans-serif" font-size="11" lengthAdjust="spacing" textLength="127" x="530.5616" y="471.8047">&#1053;&#1072;&#1089;&#1090;&#1088;&#1086;&#1080;&#1090;&#1100; &#1087;&#1091;&#1083; &#1087;&#1088;&#1086;&#1094;&#1077;&#1089;&#1089;&#1072;</text><text fill="#1A2B3C" font-family="sans-serif" font-size="11" lengthAdjust="spacing" textLength="89" x="549.5616" y="485.6406">&#1080; &#1076;&#1086;&#1088;&#1086;&#1078;&#1082;&#1080; (lanes)</text></g><g id="elem_UC_Model"><ellipse cx="866.7246" cy="476.1543" fill="#E8EEF7" rx="115.7246" ry="25.5449" style="stroke:#3D5A80;stroke-width:0.5;"/><text fill="#1A2B3C" font-family="sans-serif" font-size="11" lengthAdjust="spacing" textLength="166" x="783.7246" y="471.7373">&#1057;&#1084;&#1086;&#1076;&#1077;&#1083;&#1080;&#1088;&#1086;&#1074;&#1072;&#1090;&#1100; &#1073;&#1080;&#1079;&#1085;&#1077;&#1089;-&#1087;&#1088;&#1086;&#1094;&#1077;&#1089;&#1089;</text><text fill="#1A2B3C" font-family="sans-serif" font-size="11" lengthAdjust="spacing" textLength="134" x="799.7246" y="485.5732">(&#1089;&#1086;&#1073;&#1099;&#1090;&#1080;&#1103;, &#1079;&#1072;&#1076;&#1072;&#1095;&#1080;, &#1096;&#1083;&#1102;&#1079;&#1099;)</text></g><g id="elem_UC_BuildView"><ellipse cx="1176.4891" cy="476.0072" fill="#E8EEF7" rx="102.4891" ry="22.8978" style="stroke:#3D5A80;stroke-width:0.5;"/><text fill="#1A2B3C" font-family="sans-serif" font-size="11" lengthAdjust="spacing" textLength="114" x="1119.4891" y="471.5902">&#1055;&#1086;&#1089;&#1090;&#1088;&#1086;&#1080;&#1090;&#1100; &#1076;&#1080;&#1072;&#1075;&#1088;&#1072;&#1084;&#1084;&#1091;</text><text fill="#1A2B3C" font-family="sans-serif" font-size="11" lengthAdjust="spacing" textLength="131" x="1110.9891" y="485.4261">&#1080; &#1087;&#1088;&#1086;&#1089;&#1084;&#1086;&#1090;&#1088;&#1077;&#1090;&#1100; &#1085;&#1072; &#1093;&#1086;&#1083;&#1089;&#1090;&#1077;</text></g><g id="elem_UC_Validate"><ellipse cx="1547.0207" cy="512.915" fill="#E8EEF7" rx="123.0207" ry="31.3057" style="stroke:#3D5A80;stroke-width:0.5;"/><text fill="#000000" font-family="sans-serif" font-size="14" font-style="italic" lengthAdjust="spacing" textLength="75" x="1487.7244" y="502.4145">&#171;&#1089;&#1080;&#1089;&#1090;&#1077;&#1084;&#1072;&#187;</text><text fill="#1A2B3C" font-family="sans-serif" font-size="11" lengthAdjust="spacing" textLength="180" x="1435.2244" y="516.9096">&#1040;&#1074;&#1090;&#1086;&#1084;&#1072;&#1090;&#1080;&#1095;&#1077;&#1089;&#1082;&#1072;&#1103; &#1087;&#1088;&#1086;&#1074;&#1077;&#1088;&#1082;&#1072; &#1084;&#1086;&#1076;&#1077;&#1083;&#1080;</text><text fill="#1A2B3C" font-family="sans-serif" font-size="11" lengthAdjust="spacing" textLength="63" x="1493.7244" y="530.7456">(&#1074;&#1072;&#1083;&#1080;&#1076;&#1072;&#1094;&#1080;&#1103;)</text></g><g id="elem_UC_Export"><ellipse cx="1547.0125" cy="388.3119" fill="#E8EEF7" rx="106.5125" ry="23.7025" style="stroke:#3D5A80;stroke-width:0.5;"/><text fill="#1A2B3C" font-family="sans-serif" font-size="11" lengthAdjust="spacing" textLength="142" x="1476.0125" y="383.8949">&#1069;&#1082;&#1089;&#1087;&#1086;&#1088;&#1090;&#1080;&#1088;&#1086;&#1074;&#1072;&#1090;&#1100; &#1088;&#1077;&#1079;&#1091;&#1083;&#1100;&#1090;&#1072;&#1090;</text><text fill="#1A2B3C" font-family="sans-serif" font-size="11" lengthAdjust="spacing" textLength="116" x="1489.0125" y="397.7308">(BPMN XML, PNG, SVG)</text></g><g id="elem_UC_UndoRedo"><ellipse cx="1176.5097" cy="789.1763" fill="#E8EEF7" rx="93.5097" ry="22.567" style="stroke:#3D5A80;stroke-width:0.5;"/><text fill="#1A2B3C" font-family="sans-serif" font-size="11" lengthAdjust="spacing" textLength="116" x="1118.5097" y="784.7594">&#1054;&#1090;&#1084;&#1077;&#1085;&#1080;&#1090;&#1100; / &#1087;&#1086;&#1074;&#1090;&#1086;&#1088;&#1080;&#1090;&#1100;</text><text fill="#1A2B3C" font-family="sans-serif" font-size="11" lengthAdjust="spacing" textLength="55" x="1149.0097" y="798.5953">&#1080;&#1079;&#1084;&#1077;&#1085;&#1077;&#1085;&#1080;&#1103;</text></g><g id="elem_UC_Clear"><ellipse cx="1176.6895" cy="679.2473" fill="#E8EEF7" rx="76.1895" ry="17.6379" style="stroke:#3D5A80;stroke-width:0.5;"/><text fill="#1A2B3C" font-family="sans-serif" font-size="11" lengthAdjust="spacing" textLength="117" x="1118.1895" y="681.7483">&#1054;&#1095;&#1080;&#1089;&#1090;&#1080;&#1090;&#1100; &#1082;&#1086;&#1085;&#1089;&#1090;&#1088;&#1091;&#1082;&#1090;&#1086;&#1088;</text></g><!--entity User--><g id="elem_User"><ellipse cx="76.5" cy="512.1094" fill="#FFF6E8" rx="16" ry="16" style="stroke:#C67C2A;stroke-width:0.5;"/><path d="M76.5,532.1094 C80.5,532.1094 83.5,532.1094 87.5,528.1094 C95.5,528.1094 103.5,536.1094 103.5,544.1094 L103.5,548.1094 C103.5,552.1094 99.5,556.1094 95.5,556.1094 L57.5,556.1094 C53.5,556.1094 49.5,552.1094 49.5,548.1094 L49.5,544.1094 C49.5,536.1094 57.5,528.1094 65.5,528.1094 C69.5,532.1094 72.5,532.1094 76.5,532.1094 " fill="#FFF6E8" style="stroke:#C67C2A;stroke-width:0.5;"/><text fill="#3D2914" font-family="sans-serif" font-size="14" lengthAdjust="spacing" textLength="141" x="6" y="571.1426">&#1057;&#1080;&#1089;&#1090;&#1077;&#1084;&#1085;&#1099;&#1081; &#1072;&#1085;&#1072;&#1083;&#1080;&#1090;&#1080;&#1082;</text></g><g id="elem_GMN43"><path d="M1371,149.6094 L1371,184.7656 A0,0 0 0 0 1371,184.7656 L1429,184.7656 L1433,501.1994 L1437,184.7656 L1723,184.7656 A0,0 0 0 0 1723,184.7656 L1723,159.6094 L1713,149.6094 L1371,149.6094 A0,0 0 0 0 1371,149.6094 " fill="#FFFDF5" style="stroke:#D4C48A;stroke-width:0.5;"/><path d="M1713,149.6094 L1713,159.6094 L1723,159.6094 L1713,149.6094 " fill="#FFFDF5" style="stroke:#D4C48A;stroke-width:0.5;"/><text fill="#000000" font-family="sans-serif" font-size="10" lengthAdjust="spacing" textLength="285" x="1377" y="164.9902">&#1053;&#1077; &#1080;&#1085;&#1080;&#1094;&#1080;&#1080;&#1088;&#1091;&#1077;&#1090;&#1089;&#1103; &#1087;&#1086;&#1083;&#1100;&#1079;&#1086;&#1074;&#1072;&#1090;&#1077;&#1083;&#1077;&#1084;: &#1087;&#1088;&#1086;&#1074;&#1077;&#1088;&#1082;&#1072; &#1094;&#1077;&#1083;&#1086;&#1089;&#1090;&#1085;&#1086;&#1089;&#1090;&#1080;,</text><text fill="#000000" font-family="sans-serif" font-size="10" lengthAdjust="spacing" textLength="331" x="1377" y="177.5684">&#1085;&#1072;&#1083;&#1080;&#1095;&#1080;&#1103; &#1082;&#1086;&#1085;&#1077;&#1095;&#1085;&#1099;&#1093; &#1089;&#1086;&#1073;&#1099;&#1090;&#1080;&#1081;, &#1086;&#1090;&#1089;&#1091;&#1090;&#1089;&#1090;&#1074;&#1080;&#1103; &#171;&#1074;&#1080;&#1089;&#1103;&#1097;&#1080;&#1093;&#187; &#1101;&#1083;&#1077;&#1084;&#1077;&#1085;&#1090;&#1086;&#1074; &#1080; &#1076;&#1088;.</text></g><g id="elem_GMN46"><path d="M1038,137.1094 L1038,184.8438 A0,0 0 0 0 1038,184.8438 L1207,184.8438 L1211,453.9594 L1215,184.8438 L1315,184.8438 A0,0 0 0 0 1315,184.8438 L1315,147.1094 L1305,137.1094 L1038,137.1094 A0,0 0 0 0 1038,137.1094 " fill="#FFFDF5" style="stroke:#D4C48A;stroke-width:0.5;"/><path d="M1305,137.1094 L1305,147.1094 L1315,147.1094 L1305,137.1094 " fill="#FFFDF5" style="stroke:#D4C48A;stroke-width:0.5;"/><text fill="#000000" font-family="sans-serif" font-size="10" lengthAdjust="spacing" textLength="247" x="1044" y="152.4902">&#1055;&#1088;&#1080; &#1087;&#1086;&#1089;&#1090;&#1088;&#1086;&#1077;&#1085;&#1080;&#1080; &#1076;&#1080;&#1072;&#1075;&#1088;&#1072;&#1084;&#1084;&#1099; &#1082;&#1083;&#1080;&#1077;&#1085;&#1090; &#1079;&#1072;&#1087;&#1088;&#1072;&#1096;&#1074;&#1080;&#1074;&#1072;&#1077;&#1090;</text><text fill="#000000" font-family="sans-serif" font-size="10" lengthAdjust="spacing" textLength="256" x="1044" y="165.0684">&#1072;&#1074;&#1090;&#1086;&#1084;&#1072;&#1090;&#1080;&#1095;&#1077;&#1089;&#1082;&#1091;&#1102; &#1088;&#1072;&#1079;&#1084;&#1077;&#1090;&#1082;&#1091; &#1091; &#1073;&#1101;&#1082;&#1077;&#1085;&#1076;&#1072; (process-bpmn);</text><text fill="#000000" font-family="sans-serif" font-size="10" lengthAdjust="spacing" textLength="221" x="1044" y="177.6465">&#1073;&#1077;&#1079; &#1074;&#1072;&#1083;&#1080;&#1076;&#1085;&#1086;&#1081; &#1084;&#1086;&#1076;&#1077;&#1083;&#1080; &#1087;&#1088;&#1086;&#1089;&#1084;&#1086;&#1090;&#1088; &#1085;&#1077;&#1076;&#1086;&#1089;&#1090;&#1091;&#1087;&#1077;&#1085;.</text></g><g id="elem_GMN49"><path d="M1398.5,44.6094 L1398.5,79.7656 L1695.5,79.7656 L1695.5,54.6094 L1685.5,44.6094 L1398.5,44.6094 " fill="#FFFDF5" style="stroke:#D4C48A;stroke-width:0.5;"/><path d="M1685.5,44.6094 L1685.5,54.6094 L1695.5,54.6094 L1685.5,44.6094 " fill="#FFFDF5" style="stroke:#D4C48A;stroke-width:1.0;"/><text fill="#000000" font-family="sans-serif" font-size="10" lengthAdjust="spacing" textLength="262" x="1404.5" y="59.9902">&#1069;&#1082;&#1089;&#1087;&#1086;&#1088;&#1090; BPMN XML &#1074;&#1086;&#1079;&#1084;&#1086;&#1078;&#1077;&#1085; &#1087;&#1088;&#1080; &#1074;&#1072;&#1083;&#1080;&#1076;&#1085;&#1086;&#1081; &#1084;&#1086;&#1076;&#1077;&#1083;&#1080;;</text><text fill="#000000" font-family="sans-serif" font-size="10" lengthAdjust="spacing" textLength="276" x="1404.5" y="72.5684">PNG/SVG &#8212; &#1087;&#1086;&#1089;&#1083;&#1077; &#1091;&#1089;&#1087;&#1077;&#1096;&#1085;&#1086;&#1075;&#1086; &#1086;&#1090;&#1086;&#1073;&#1088;&#1072;&#1078;&#1077;&#1085;&#1080;&#1103; &#1076;&#1080;&#1072;&#1075;&#1088;&#1072;&#1084;&#1084;&#1099;.</text></g><!--link UC_Template to UC_Import--><!--link UC_PoolLanes to UC_Model--><!--link UC_PoolLanes to UC_Model--><g id="link_UC_PoolLanes_UC_Model"><path d="M689.31,468.6094 C710.79,468.6094 727.78,468.6094 749.84,468.6094 " fill="none" id="UC_PoolLanes-to-UC_Model" style="stroke:#4A5568;stroke-width:1.0;"/><polygon fill="#4A5568" points="755.84,468.6094,746.84,464.6094,750.84,468.6094,746.84,472.6094,755.84,468.6094" style="stroke:#4A5568;stroke-width:1.0;"/></g><!--link UC_Model to UC_BuildView--><!--link UC_Model to UC_BuildView--><g id="link_UC_Model_UC_BuildView"><path d="M976.67,483.7794 C1010.34,483.7794 1041.11,483.7794 1073.81,483.7794 " fill="none" id="UC_Model-to-UC_BuildView" style="stroke:#4A5568;stroke-width:1.0;"/><polygon fill="#4A5568" points="1079.81,483.7794,1070.81,479.7794,1074.81,483.7794,1070.81,487.7794,1079.81,483.7794" style="stroke:#4A5568;stroke-width:1.0;"/><text fill="#000000" font-family="sans-serif" font-size="10" lengthAdjust="spacing" textLength="102" x="925.24" y="495.1602">&#1082;&#1085;&#1086;&#1087;&#1082;&#1072; &#171;&#1055;&#1086;&#1089;&#1090;&#1088;&#1086;&#1080;&#1090;&#1100;&#187;</text></g><!--link UC_BuildView to UC_Validate--><!--link UC_BuildView to UC_Validate--><g id="link_UC_BuildView_UC_Validate"><path d="M1244.89,493.2794 C1302.8,493.2794 1380.48,493.2794 1445.09,493.2794 " fill="none" id="UC_BuildView-to-UC_Validate" style="stroke:#4A5568;stroke-width:1.0;stroke-dasharray:7.0,7.0;"/><polygon fill="#4A5568" points="1451.09,493.2794,1442.09,489.2794,1446.09,493.2794,1442.09,497.2794,1451.09,493.2794" style="stroke:#4A5568;stroke-width:1.0;"/><text fill="#000000" font-family="sans-serif" font-size="10" lengthAdjust="spacing" textLength="221" x="1125.99" y="504.6602">&#171;include&#187; &#8212; &#1072;&#1074;&#1090;&#1086;&#1084;&#1072;&#1090;&#1080;&#1095;&#1077;&#1089;&#1082;&#1080; &#1087;&#1088;&#1080; &#1087;&#1086;&#1089;&#1090;&#1088;&#1086;&#1077;&#1085;&#1080;&#1080;</text></g><!--link UC_BuildView to UC_Export--><!--link UC_BuildView to UC_Export--><g id="link_UC_BuildView_UC_Export"><path d="M1277.51,472.1094 C1397.9,472.1094 1583,472.1094 1583,472.1094 C1583,472.1094 1583,441.4994 1583,416.6194 " fill="none" id="UC_BuildView-to-UC_Export" style="stroke:#4A5568;stroke-width:1.0;"/><polygon fill="#4A5568" points="1583,410.6194,1579,419.6194,1583,415.6194,1587,419.6194,1583,410.6194" style="stroke:#4A5568;stroke-width:1.0;"/></g><!--link UC_UndoRedo to UC_Clear--><!--link P_IN to P_MAIN--><!--link P_MAIN to P_AUX--><!--link User to UC_PoolLanes--><g id="link_User_UC_PoolLanes"><path d="M147.1,516.9094 C277.51,516.9094 543,516.9094 543,516.9094 C543,516.9094 543,512.0594 543,501.5494 " fill="none" id="User-to-UC_PoolLanes" style="stroke:#4A5568;stroke-width:1.0;"/><polygon fill="#4A5568" points="543,495.5494,539,504.5494,543,500.5494,547,504.5494,543,495.5494" style="stroke:#4A5568;stroke-width:1.0;"/></g><!--link User to UC_Model--><g id="link_User_UC_Model"><path d="M147.07,522.0094 C330.65,522.0094 809,522.0094 809,522.0094 C809,522.0094 809,515.9894 809,504.2494 " fill="none" id="User-to-UC_Model" style="stroke:#4A5568;stroke-width:1.0;"/><polygon fill="#4A5568" points="809,498.2494,805,507.2494,809,503.2494,813,507.2494,809,498.2494" style="stroke:#4A5568;stroke-width:1.0;"/></g><!--link User to UC_Template--><g id="link_User_UC_Template"><path d="M147.16,511.8094 C203.5,511.8094 273,511.8094 273,511.8094 C273,511.8094 273,483.5894 273,460.8594 " fill="none" id="User-to-UC_Template" style="stroke:#4A5568;stroke-width:1.0;"/><polygon fill="#4A5568" points="273,454.8594,269,463.8594,273,459.8594,277,463.8594,273,454.8594" style="stroke:#4A5568;stroke-width:1.0;"/></g><!--link User to UC_Import--><g id="link_User_UC_Import"><path d="M147.34,506.7094 C186.38,506.7094 227,506.7094 227,506.7094 C227,506.7094 227,373.0194 227,335.3594 " fill="none" id="User-to-UC_Import" style="stroke:#4A5568;stroke-width:1.0;"/><polygon fill="#4A5568" points="227,329.3594,223,338.3594,227,334.3594,231,338.3594,227,329.3594" style="stroke:#4A5568;stroke-width:1.0;"/></g><!--link UC_BuildView to UC_Clear--><g id="link_UC_BuildView_UC_Clear"><path d="M1177,499.3994 C1177,540.4294 1177,618.7294 1177,655.4094 " fill="none" id="UC_BuildView-to-UC_Clear" style="stroke:#4A5568;stroke-width:1.0;stroke-dasharray:7.0,7.0;"/><polygon fill="#4A5568" points="1177,661.4094,1181,652.4094,1177,656.4094,1173,652.4094,1177,661.4094" style="stroke:#4A5568;stroke-width:1.0;"/></g><!--link UC_BuildView to UC_UndoRedo--><g id="link_UC_BuildView_UC_UndoRedo"><path d="M1262,489.1594 C1262,541.4594 1262,729.1894 1262,773.8694 " fill="none" id="UC_BuildView-to-UC_UndoRedo" style="stroke:#4A5568;stroke-width:1.0;stroke-dasharray:7.0,7.0;"/><polygon fill="#4A5568" points="1262,779.8694,1266,770.8694,1262,774.8694,1258,770.8694,1262,779.8694" style="stroke:#4A5568;stroke-width:1.0;"/></g><!--link UC_Template to UC_PoolLanes--><g id="link_UC_Template_UC_PoolLanes"><path d="M351,454.5694 C351,467.8094 351,482.9394 351,482.9394 C351,482.9394 423.77,482.9394 491.61,482.9394 " fill="none" id="UC_Template-to-UC_PoolLanes" style="stroke:#4A5568;stroke-width:1.0;"/><polygon fill="#4A5568" points="497.61,482.9394,488.61,478.9394,492.61,482.9394,488.61,486.9394,497.61,482.9394" style="stroke:#4A5568;stroke-width:1.0;"/></g><!--link UC_Template to UC_Model--><g id="link_UC_Template_UC_Model"><path d="M388.14,431.6094 C531.67,431.6094 828,431.6094 828,431.6094 C828,431.6094 828,435.5494 828,446.0394 " fill="none" id="UC_Template-to-UC_Model" style="stroke:#4A5568;stroke-width:1.0;"/><polygon fill="#4A5568" points="828,452.0394,832,443.0394,828,447.0394,824,443.0394,828,452.0394" style="stroke:#4A5568;stroke-width:1.0;"/></g><!--link UC_Import to UC_PoolLanes--><g id="link_UC_Import_UC_PoolLanes"><path d="M397,329.4994 C397,362.3794 397,470.2794 397,470.2794 C397,470.2794 440.83,470.2794 490.37,470.2794 " fill="none" id="UC_Import-to-UC_PoolLanes" style="stroke:#4A5568;stroke-width:1.0;"/><polygon fill="#4A5568" points="496.37,470.2794,487.37,466.2794,491.37,470.2794,487.37,474.2794,496.37,470.2794" style="stroke:#4A5568;stroke-width:1.0;"/></g><!--link UC_Import to UC_Model--><g id="link_UC_Import_UC_Model"><path d="M399.82,327.6094 C564.89,327.6094 905,327.6094 905,327.6094 C905,327.6094 905,403.8394 905,445.9194 " fill="none" id="UC_Import-to-UC_Model" style="stroke:#4A5568;stroke-width:1.0;"/><polygon fill="#4A5568" points="905,451.9194,909,442.9194,905,446.9194,901,442.9194,905,451.9194" style="stroke:#4A5568;stroke-width:1.0;"/></g><!--link UC_Import to UC_BuildView--><g id="link_UC_Import_UC_BuildView"><path d="M399.75,312.6094 C613.37,312.6094 1143,312.6094 1143,312.6094 C1143,312.6094 1143,403.4294 1143,448.0594 " fill="none" id="UC_Import-to-UC_BuildView" style="stroke:#4A5568;stroke-width:1.0;stroke-dasharray:7.0,7.0;"/><polygon fill="#4A5568" points="1143,454.0594,1147,445.0594,1143,449.0594,1139,445.0594,1143,454.0594" style="stroke:#4A5568;stroke-width:1.0;"/><text fill="#000000" font-family="sans-serif" font-size="10" lengthAdjust="spacing" textLength="282" x="559.1" y="323.9902">&#171;&#1072;&#1083;&#1100;&#1090;&#1077;&#1088;&#1085;&#1072;&#1090;&#1080;&#1074;&#1072;&#187; &#8212; &#1073;&#1099;&#1089;&#1090;&#1088;&#1099;&#1081; &#1087;&#1088;&#1086;&#1089;&#1084;&#1086;&#1090;&#1088; &#1073;&#1077;&#1079; &#1088;&#1091;&#1095;&#1085;&#1086;&#1075;&#1086; &#1074;&#1074;&#1086;&#1076;&#1072;</text></g><!--link UC_Model to UC_UndoRedo--><g id="link_UC_Model_UC_UndoRedo"><path d="M867,501.6294 C867,575.0594 867,781.6094 867,781.6094 C867,781.6094 990.74,781.6094 1082.22,781.6094 " fill="none" id="UC_Model-to-UC_UndoRedo" style="stroke:#4A5568;stroke-width:1.0;stroke-dasharray:7.0,7.0;"/><polygon fill="#4A5568" points="1088.22,781.6094,1079.22,777.6094,1083.22,781.6094,1079.22,785.6094,1088.22,781.6094" style="stroke:#4A5568;stroke-width:1.0;"/><text fill="#000000" font-family="sans-serif" font-size="10" lengthAdjust="spacing" textLength="209" x="657" y="763.6102">&#171;extend&#187; &#1087;&#1088;&#1080; &#1085;&#1072;&#1083;&#1080;&#1095;&#1080;&#1080; &#1080;&#1089;&#1090;&#1086;&#1088;&#1080;&#1080; &#1080;&#1079;&#1084;&#1077;&#1085;&#1077;&#1085;&#1080;&#1081;</text></g><!--link UC_PoolLanes to UC_UndoRedo--><g id="link_UC_PoolLanes_UC_UndoRedo"><path d="M629,497.3894 C629,568.9694 629,796.6094 629,796.6094 C629,796.6094 927.37,796.6094 1082.23,796.6094 " fill="none" id="UC_PoolLanes-to-UC_UndoRedo" style="stroke:#4A5568;stroke-width:1.0;stroke-dasharray:7.0,7.0;"/><polygon fill="#4A5568" points="1088.23,796.6094,1079.23,792.6094,1083.23,796.6094,1079.23,800.6094,1088.23,796.6094" style="stroke:#4A5568;stroke-width:1.0;"/><text fill="#000000" font-family="sans-serif" font-size="10" lengthAdjust="spacing" textLength="209" x="499" y="807.9902">&#171;extend&#187; &#1087;&#1088;&#1080; &#1085;&#1072;&#1083;&#1080;&#1095;&#1080;&#1080; &#1080;&#1089;&#1090;&#1086;&#1088;&#1080;&#1080; &#1080;&#1079;&#1084;&#1077;&#1085;&#1077;&#1085;&#1080;&#1081;</text></g><!--link UC_PoolLanes to UC_Clear--><g id="link_UC_PoolLanes_UC_Clear"><path d="M662,492.8494 C662,542.3994 662,684.9394 662,684.9394 C662,684.9394 957.21,684.9394 1098.69,684.9394 " fill="none" id="UC_PoolLanes-to-UC_Clear" style="stroke:#4A5568;stroke-width:1.0;stroke-dasharray:7.0,7.0;"/><polygon fill="#4A5568" points="1104.69,684.9394,1095.69,680.9394,1099.69,684.9394,1095.69,688.9394,1104.69,684.9394" style="stroke:#4A5568;stroke-width:1.0;"/><text fill="#000000" font-family="sans-serif" font-size="10" lengthAdjust="spacing" textLength="164" x="622.3" y="696.3202">&#171;extend&#187; &#1087;&#1088;&#1080; &#1085;&#1072;&#1083;&#1080;&#1095;&#1080;&#1080; &#1101;&#1083;&#1077;&#1084;&#1077;&#1085;&#1090;&#1086;&#1074;</text></g><!--link UC_Model to UC_Clear--><g id="link_UC_Model_UC_Clear"><path d="M925,498.3394 C925,549.9094 925,673.2794 925,673.2794 C925,673.2794 1024.43,673.2794 1098.77,673.2794 " fill="none" id="UC_Model-to-UC_Clear" style="stroke:#4A5568;stroke-width:1.0;stroke-dasharray:7.0,7.0;"/><polygon fill="#4A5568" points="1104.77,673.2794,1095.77,669.2794,1099.77,673.2794,1095.77,677.2794,1104.77,673.2794" style="stroke:#4A5568;stroke-width:1.0;"/><text fill="#000000" font-family="sans-serif" font-size="10" lengthAdjust="spacing" textLength="164" x="928.42" y="684.6602">&#171;extend&#187; &#1087;&#1088;&#1080; &#1085;&#1072;&#1083;&#1080;&#1095;&#1080;&#1080; &#1101;&#1083;&#1077;&#1084;&#1077;&#1085;&#1090;&#1086;&#1074;</text></g><!--link UC_Export to GMN49--><g id="link_UC_Export_GMN49"><path d="M1653.65,388.1094 C1698.73,388.1094 1741,388.1094 1741,388.1094 C1741,388.1094 1741,62.1094 1741,62.1094 C1741,62.1094 1721.82,62.1094 1695.52,62.1094 " fill="none" id="UC_Export-GMN49" style="stroke:#4A5568;stroke-width:1.0;stroke-dasharray:7.0,7.0;"/></g><!--SRC=[lLTjQnj74Fv-ls9nlwHWEV6BR3Kr0acsGY0s9cv2IbF2nRUnZvplnDqP9os1E6hY5YTn2ONsInFoEHJEYXNBKgI0Vy7UN-WlwSpitNdt98L2eIH8kjszcNcUdNbc7DgXmrbrRMMLLOB03aBJ3TdVZtzZubXqH2JUnu_XyoFyYvXeYGWUSRaVFn43qMAY4- -9J_2p5pyN9xY4cx1wQ1Z1VTjjcBwvpO8jq_9sRNUJtJETW2ixMwPhxVfs679tQC_S23r_FNm8yPcxFF2srKt7TdduiC6PvuTRdhBXUXOFU8CjN58MVTEzZul5UMMnOMxSDpUvzE3p3O2-wV3X0-n7Wx4g_DxqlHtNgdcEvxClwdFrXNeLTppVudwoMgmjr2hpi5htt51QlkivLhAG79gfpIuNBncF55Sx0TymWp6kbalBo_M5lAlPfMAbT4ctF5sPgSxMOEswVDrtkS-cIsayzW-SJKzhZedaCGZhzVdbKjvjRNwXDbFHtSukpNmrFQVPpVWSOxjIhzQNyhPBzSfijPGBVsP63zZtlLqochmqLoaMvtM8EhUk5_An29VgnNmKItErkL9boA3Xy7iX2ptcsvjR8RDiX6Xxhc583YV4Mwm6A8msL4i_FX2dZ8eX4ZtOU09rqvrWPi1k1DmtZ7E2z1SZTlPEByUp7hss_kqwe82mqhIS4A_Yfr1on_41b2Q3Gioin4rwPUtErLL2ph84cn2_owgEcr2l45RydCK_mz8HH3aG_Tkk-0GrFeYVYJPOsnEHZBbsvnk-tN3CaEVC_G4nWm20GK28Rv9Ae5b40UOwueJ5Fu67K_0GiGjJTnlRxfUfrQlR3QXWiFb8X_OQNFV967wUCfAX8_2p3mQ1M7I94jHDWAvKHa3z4o81HYWg2HN0DKMFvJ5YcAXu0phwGNJXyO9ZkZp80btpFESQhkHyl0NyS0V0UY-77y85x10_E2de7c-x5y3jG1p51qJRuII3an6OYH3W95v9BtufJkA3B80L43Odv_mDcCm1pCbst9JOfFiz39REj-Lfo4v6ITIJgPCwg-xOZdNJvhivXx-A5j7-4J62ott40tH5yM7Y0-2tuRkB_K9X1X1JRu2VXF8PeiwmtJGTsuBSOekBQXgBg5pE1V2NwCgECoBX41PGriHc19km25wfbcwjN9jaQwjN9jdwpIkPr-K7etFlLTBJCFpt1BHD_Grhkiq8qIc5s48GIG9MRjmQoh_NSEOZdEudbtEHybPIY8qK5sM59CVaqSCqm1kkvLtdbZTaTZ_XABdpBbQkJ0H0tvNcKoCrXvj-2bAfOrRuRiksBEv-Ju9MqAfHJVZpWz34tOAQY-dF4KVK358VHxbDht_iqSngTcKAEwCiIj1mZYGmVq3A1UsIRWplmssYvADKiqAXh0k0kYgPK5SodLGN4s8DdLVLX77EfLm-f-4otZ3Au2SggxDtmtL_rZEqLwQcobfTNORAijqDPyVYvRASxw8nfPo8HKTgREg5CbDqT2z9fCcbw06KpwzXn4QMsOQMaKDC3s-UioKv7VcIlfNSKRQSaACIlBY8saIoWUhLbvoWigHqeLJB2gF6djDJ5FisDZeeG62oJyenm8cvHHeOAVUhCq3E-GCOW2rmbLAVJWtOxJeigNRI37hK1KESwddrFpcWo_qtrkCNyD2M1kNV3Nao_eifW-QxkruOUjlCkvVJ4vW1seW7TVKPcY29nEwtHorB_zD5IZqwk3pSph1vuv14LFMJxyuaEb62HAkan_3UFhQC-2bJUxquXLu_8FzD-apQ29PrY-xXCFu5lf-UzKQWPJIdn8-d36299jjH-5Nj5M_65lFmi720iMEB9eTo9a4Q8fX7Mh8Ua3iqEqO-0DHBEQnH1i4MB37u3_XVW75qVOnZOCFtDdWG56WQ_1ejoWfIfWGv-QbJn8YwmnGzJh0r0IKu-3mvMGlHPmcM3WgCIlQ4t7v0SragVYuoH003naMOBwHU4DzuVG2UlBI1mqmNvF1wH4HzIDl-YFjGeFm3]--></g></svg>