<?xml version="1.0" encoding="us-ascii" standalone="no"?><svg xmlns="http://www.w3.org/2000/svg" xmlns:xlink="http://www.w3.org/1999/xlink" contentStyleType="text/css" height="1108px" preserveAspectRatio="none" style="width:895px;height:1108px;background:#FFFFFF;" version="1.1" viewBox="0 0 895 1108" width="895px" zoomAndPan="magnify"><defs/><g><text fill="#000000" font-family="sans-serif" font-size="14" font-weight="bold" lengthAdjust="spacing" textLength="308.4375" x="286.2813" y="24.5332">BPMN Assistant &#8212; &#1076;&#1080;&#1072;&#1075;&#1088;&#1072;&#1084;&#1084;&#1072; &#1082;&#1086;&#1084;&#1087;&#1086;&#1085;&#1077;&#1085;&#1090;&#1086;&#1074;</text><!--cluster NODE_SERVER--><g id="cluster_NODE_SERVER"><polygon fill="#F4F7FB" points="16,54.6094,26,44.6094,730,44.6094,730,424.1094,720,434.1094,16,434.1094,16,54.6094" style="stroke:#5C7CA6;stroke-width:1.0;"/><line style="stroke:#5C7CA6;stroke-width:1.0;" x1="720" x2="730" y1="54.6094" y2="44.6094"/><line style="stroke:#5C7CA6;stroke-width:1.0;" x1="16" x2="720" y1="54.6094" y2="54.6094"/><line style="stroke:#5C7CA6;stroke-width:1.0;" x1="720" x2="720" y1="54.6094" y2="434.1094"/><text fill="#2C3E50" font-family="sans-serif" font-size="14" font-weight="bold" lengthAdjust="spacing" textLength="148" x="295" y="72.1426">&#1057;&#1077;&#1088;&#1074;&#1077;&#1088; &#1087;&#1088;&#1080;&#1083;&#1086;&#1078;&#1077;&#1085;&#1080;&#1081;</text><text fill="#2C3E50" font-family="sans-serif" font-size="14" font-weight="bold" lengthAdjust="spacing" textLength="286" x="226" y="89.752">(Python + Node.js &#1076;&#1083;&#1103; &#1089;&#1082;&#1088;&#1080;&#1087;&#1090;&#1072; &#1088;&#1072;&#1079;&#1084;&#1077;&#1090;&#1082;&#1080;)</text></g><!--cluster NODE_CLIENT--><g id="cluster_NODE_CLIENT"><polygon fill="#F4F7FB" points="255,708.1094,265,698.1094,827,698.1094,827,1081.1094,817,1091.1094,255,1091.1094,255,708.1094" style="stroke:#5C7CA6;stroke-width:1.0;"/><line style="stroke:#5C7CA6;stroke-width:1.0;" x1="817" x2="827" y1="708.1094" y2="698.1094"/><line style="stroke:#5C7CA6;stroke-width:1.0;" x1="255" x2="817" y1="708.1094" y2="708.1094"/><line style="stroke:#5C7CA6;stroke-width:1.0;" x1="817" x2="817" y1="708.1094" y2="1091.1094"/><text fill="#2C3E50" font-family="sans-serif" font-size="14" font-weight="bold" lengthAdjust="spacing" textLength="164" x="455" y="725.6426">&#1050;&#1083;&#1080;&#1077;&#1085;&#1090;&#1089;&#1082;&#1086;&#1077; &#1086;&#1082;&#1088;&#1091;&#1078;&#1077;&#1085;&#1080;&#1077;</text><text fill="#2C3E50" font-family="sans-serif" font-size="14" font-weight="bold" lengthAdjust="spacing" textLength="68" x="503" y="743.252">(&#1073;&#1088;&#1072;&#1091;&#1079;&#1077;&#1088;)</text></g><!--entity COMP_LAYOUT--><g id="elem_COMP_LAYOUT"><rect fill="#E8EEF7" height="82.8281" rx="2.5" ry="2.5" style="stroke:#3D5A80;stroke-width:0.5;" width="183" x="134.5" y="111.6094"/><rect fill="#E8EEF7" height="10" style="stroke:#3D5A80;stroke-width:0.5;" width="15" x="297.5" y="116.6094"/><rect fill="#E8EEF7" height="2" style="stroke:#3D5A80;stroke-width:0.5;" width="4" x="295.5" y="118.6094"/><rect fill="#E8EEF7" height="2" style="stroke:#3D5A80;stroke-width:0.5;" width="4" x="295.5" y="122.6094"/><text fill="#1A2B3C" font-family="sans-serif" font-size="14" font-style="italic" lengthAdjust="spacing" textLength="86" x="178" y="146.1426">&#171;component&#187;</text><text fill="#1A2B3C" font-family="sans-serif" font-size="14" lengthAdjust="spacing" textLength="143" x="149.5" y="163.752">&#1057;&#1077;&#1088;&#1074;&#1080;&#1089; &#1072;&#1074;&#1090;&#1086;&#1088;&#1072;&#1079;&#1084;&#1077;&#1090;&#1082;&#1080;</text><text fill="#1A2B3C" font-family="sans-serif" font-size="14" lengthAdjust="spacing" textLength="38" x="149.5" y="181.3613">BPMN</text></g><!--entity COMP_JSON--><g id="elem_COMP_JSON"><rect fill="#E8EEF7" height="82.8281" rx="2.5" ry="2.5" style="stroke:#3D5A80;stroke-width:0.5;" width="201" x="465.5" y="111.6094"/><rect fill="#E8EEF7" height="10" style="stroke:#3D5A80;stroke-width:0.5;" width="15" x="646.5" y="116.6094"/><rect fill="#E8EEF7" height="2" style="stroke:#3D5A80;stroke-width:0.5;" width="4" x="644.5" y="118.6094"/><rect fill="#E8EEF7" height="2" style="stroke:#3D5A80;stroke-width:0.5;" width="4" x="644.5" y="122.6094"/><text fill="#1A2B3C" font-family="sans-serif" font-size="14" font-style="italic" lengthAdjust="spacing" textLength="86" x="518" y="146.1426">&#171;component&#187;</text><text fill="#1A2B3C" font-family="sans-serif" font-size="14" lengthAdjust="spacing" textLength="161" x="480.5" y="163.752">&#1057;&#1077;&#1088;&#1074;&#1080;&#1089; &#1087;&#1088;&#1077;&#1086;&#1073;&#1088;&#1072;&#1079;&#1086;&#1074;&#1072;&#1085;&#1080;&#1103;</text><text fill="#1A2B3C" font-family="sans-serif" font-size="14" lengthAdjust="spacing" textLength="124" x="480.5" y="181.3613">BPMN XML &#8594; JSON</text></g><!--entity ART_LAYOUT--><g id="elem_ART_LAYOUT"><rect fill="#FFFFFF" height="75.8281" rx="2.5" ry="2.5" style="stroke:#8FA3B8;stroke-width:0.5;" width="150" x="48" y="326.1094"/><polygon fill="#FFFFFF" points="181,331.1094,181,345.1094,193,345.1094,193,337.1094,187,331.1094,181,331.1094" style="stroke:#8FA3B8;stroke-width:0.5;"/><line style="stroke:#8FA3B8;stroke-width:0.5;" x1="187" x2="187" y1="331.1094" y2="337.1094"/><line style="stroke:#8FA3B8;stroke-width:0.5;" x1="193" x2="187" y1="337.1094" y2="337.1094"/><text fill="#1A2B3C" font-family="sans-serif" font-size="14" font-style="italic" lengthAdjust="spacing" textLength="59" x="88.5" y="353.6426">&#171;artifact&#187;</text><text fill="#1A2B3C" font-family="sans-serif" font-size="14" lengthAdjust="spacing" textLength="112" x="58" y="371.252">&#1057;&#1082;&#1088;&#1080;&#1087;&#1090; &#1088;&#1072;&#1079;&#1084;&#1077;&#1090;&#1082;&#1080;</text><text fill="#1A2B3C" font-family="sans-serif" font-size="14" lengthAdjust="spacing" textLength="120" x="58" y="388.8613">(layout_process.js)</text></g><!--entity ART_PY--><g id="elem_ART_PY"><rect fill="#FFFFFF" height="75.8281" rx="2.5" ry="2.5" style="stroke:#8FA3B8;stroke-width:0.5;" width="153" x="253.5" y="326.1094"/><polygon fill="#FFFFFF" points="389.5,331.1094,389.5,345.1094,401.5,345.1094,401.5,337.1094,395.5,331.1094,389.5,331.1094" style="stroke:#8FA3B8;stroke-width:0.5;"/><line style="stroke:#8FA3B8;stroke-width:0.5;" x1="395.5" x2="395.5" y1="331.1094" y2="337.1094"/><line style="stroke:#8FA3B8;stroke-width:0.5;" x1="401.5" x2="395.5" y1="337.1094" y2="337.1094"/><text fill="#1A2B3C" font-family="sans-serif" font-size="14" font-style="italic" lengthAdjust="spacing" textLength="59" x="295.5" y="353.6426">&#171;artifact&#187;</text><text fill="#1A2B3C" font-family="sans-serif" font-size="14" lengthAdjust="spacing" textLength="123" x="263.5" y="371.252">&#1055;&#1072;&#1082;&#1077;&#1090; &#1087;&#1088;&#1080;&#1083;&#1086;&#1078;&#1077;&#1085;&#1080;&#1103;</text><text fill="#1A2B3C" font-family="sans-serif" font-size="14" lengthAdjust="spacing" textLength="108" x="263.5" y="388.8613">(Python-&#1084;&#1086;&#1076;&#1091;&#1083;&#1080;)</text></g><!--entity COMP_API--><g id="elem_COMP_API"><rect fill="#E8EEF7" height="82.8281" rx="2.5" ry="2.5" style="stroke:#3D5A80;stroke-width:0.5;" width="176" x="522" y="322.6094"/><rect fill="#E8EEF7" height="10" style="stroke:#3D5A80;stroke-width:0.5;" width="15" x="678" y="327.6094"/><rect fill="#E8EEF7" height="2" style="stroke:#3D5A80;stroke-width:0.5;" width="4" x="676" y="329.6094"/><rect fill="#E8EEF7" height="2" style="stroke:#3D5A80;stroke-width:0.5;" width="4" x="676" y="333.6094"/><text fill="#1A2B3C" font-family="sans-serif" font-size="14" font-style="italic" lengthAdjust="spacing" textLength="86" x="562" y="357.1426">&#171;component&#187;</text><text fill="#1A2B3C" font-family="sans-serif" font-size="14" lengthAdjust="spacing" textLength="136" x="537" y="374.752">&#1042;&#1077;&#1073;-&#1087;&#1088;&#1080;&#1083;&#1086;&#1078;&#1077;&#1085;&#1080;&#1077; API</text><text fill="#1A2B3C" font-family="sans-serif" font-size="14" lengthAdjust="spacing" textLength="59" x="537" y="392.3613">(FastAPI)</text></g><!--entity COMP_SPA--><g id="elem_COMP_SPA"><rect fill="#E8EEF7" height="82.8281" rx="2.5" ry="2.5" style="stroke:#3D5A80;stroke-width:0.5;" width="237" x="526.5" y="765.1094"/><rect fill="#E8EEF7" height="10" style="stroke:#3D5A80;stroke-width:0.5;" width="15" x="743.5" y="770.1094"/><rect fill="#E8EEF7" height="2" style="stroke:#3D5A80;stroke-width:0.5;" width="4" x="741.5" y="772.1094"/><rect fill="#E8EEF7" height="2" style="stroke:#3D5A80;stroke-width:0.5;" width="4" x="741.5" y="776.1094"/><text fill="#1A2B3C" font-family="sans-serif" font-size="14" font-style="italic" lengthAdjust="spacing" textLength="86" x="597" y="799.6426">&#171;component&#187;</text><text fill="#1A2B3C" font-family="sans-serif" font-size="14" lengthAdjust="spacing" textLength="197" x="541.5" y="817.252">&#1054;&#1076;&#1085;&#1086;&#1089;&#1090;&#1088;&#1072;&#1085;&#1080;&#1095;&#1085;&#1086;&#1077; &#1087;&#1088;&#1080;&#1083;&#1086;&#1078;&#1077;&#1085;&#1080;&#1077;</text><text fill="#1A2B3C" font-family="sans-serif" font-size="14" lengthAdjust="spacing" textLength="168" x="541.5" y="834.8613">&#171;BPMN Assistant&#187; (Vue.js)</text></g><!--entity ART_FE--><g id="elem_ART_FE"><rect fill="#FFFFFF" height="75.8281" rx="2.5" ry="2.5" style="stroke:#8FA3B8;stroke-width:0.5;" width="156" x="279" y="768.6094"/><polygon fill="#FFFFFF" points="418,773.6094,418,787.6094,430,787.6094,430,779.6094,424,773.6094,418,773.6094" style="stroke:#8FA3B8;stroke-width:0.5;"/><line style="stroke:#8FA3B8;stroke-width:0.5;" x1="424" x2="424" y1="773.6094" y2="779.6094"/><line style="stroke:#8FA3B8;stroke-width:0.5;" x1="430" x2="424" y1="779.6094" y2="779.6094"/><text fill="#1A2B3C" font-family="sans-serif" font-size="14" font-style="italic" lengthAdjust="spacing" textLength="59" x="322.5" y="796.1426">&#171;artifact&#187;</text><text fill="#1A2B3C" font-family="sans-serif" font-size="14" lengthAdjust="spacing" textLength="126" x="289" y="813.752">&#1057;&#1073;&#1086;&#1088;&#1082;&#1072; &#1092;&#1088;&#1086;&#1085;&#1090;&#1077;&#1085;&#1076;&#1072;</text><text fill="#1A2B3C" font-family="sans-serif" font-size="14" lengthAdjust="spacing" textLength="34" x="289" y="831.3613">(Vite)</text></g><!--entity COMP_BPMNJS--><g id="elem_COMP_BPMNJS"><rect fill="#E8EEF7" height="82.8281" rx="2.5" ry="2.5" style="stroke:#3D5A80;stroke-width:0.5;" width="160" x="565" y="976.1094"/><rect fill="#E8EEF7" height="10" style="stroke:#3D5A80;stroke-width:0.5;" width="15" x="705" y="981.1094"/><rect fill="#E8EEF7" height="2" style="stroke:#3D5A80;stroke-width:0.5;" width="4" x="703" y="983.1094"/><rect fill="#E8EEF7" height="2" style="stroke:#3D5A80;stroke-width:0.5;" width="4" x="703" y="987.1094"/><text fill="#1A2B3C" font-family="sans-serif" font-size="14" font-style="italic" lengthAdjust="spacing" textLength="86" x="597" y="1010.6426">&#171;component&#187;</text><text fill="#1A2B3C" font-family="sans-serif" font-size="14" lengthAdjust="spacing" textLength="120" x="580" y="1028.252">&#1041;&#1080;&#1073;&#1083;&#1080;&#1086;&#1090;&#1077;&#1082;&#1072; BPMN</text><text fill="#1A2B3C" font-family="sans-serif" font-size="14" lengthAdjust="spacing" textLength="60" x="580" y="1045.8613">(bpmn-js)</text></g><!--entity IF_REST--><g id="elem_IF_REST"><ellipse cx="696" cy="537.1094" fill="#F1F1F1" rx="8" ry="8" style="stroke:#181818;stroke-width:0.5;"/><text fill="#000000" font-family="sans-serif" font-size="14" lengthAdjust="spacing" textLength="77" x="646.5" y="568.6426">HTTP REST</text><text fill="#000000" font-family="sans-serif" font-size="14" lengthAdjust="spacing" textLength="99" x="646.5" y="586.252">BPMN Assistant</text></g><g id="elem_GMN9"><path d="M760,513.1094 L760,533.1094 L705.25,537.1094 L760,541.1094 L760,560.8438 A0,0 0 0 0 760,560.8438 L888,560.8438 A0,0 0 0 0 888,560.8438 L888,523.1094 L878,513.1094 L760,513.1094 A0,0 0 0 0 760,513.1094 " fill="#FFFDF5" style="stroke:#D4C48A;stroke-width:0.5;"/><path d="M878,513.1094 L878,523.1094 L888,523.1094 L878,513.1094 " fill="#FFFDF5" style="stroke:#D4C48A;stroke-width:0.5;"/><text fill="#000000" font-family="sans-serif" font-size="10" font-weight="bold" lengthAdjust="spacing" textLength="66" x="766" y="528.4902">&#1050;&#1086;&#1085;&#1090;&#1088;&#1072;&#1082;&#1090; API:</text><text fill="#000000" font-family="sans-serif" font-size="10" lengthAdjust="spacing" textLength="4" x="766" y="541.0684">&#8226;</text><text fill="#000000" font-family="sans-serif" font-size="10" font-weight="bold" lengthAdjust="spacing" textLength="27" x="773" y="541.0684">POST</text><text fill="#000000" font-family="sans-serif" font-size="10" lengthAdjust="spacing" textLength="68" x="803" y="541.0684">/process-bpmn</text><text fill="#000000" font-family="sans-serif" font-size="10" lengthAdjust="spacing" textLength="4" x="766" y="553.6465">&#8226;</text><text fill="#000000" font-family="sans-serif" font-size="10" font-weight="bold" lengthAdjust="spacing" textLength="27" x="773" y="553.6465">POST</text><text fill="#000000" font-family="sans-serif" font-size="10" lengthAdjust="spacing" textLength="70" x="803" y="553.6465">/bpmn_to_json</text></g><!--link NODE_SERVER to IF_REST--><!--link IF_REST to NODE_CLIENT--><!--link COMP_API to IF_REST--><g id="link_COMP_API_IF_REST"><path d="M624.94,405.7794 C634.22,429.4694 647.01,459.6094 661,485.1094 C669.68,500.9294 682.04,517.9494 689.51,527.7794 " fill="none" id="COMP_API-IF_REST" style="stroke:#4A5568;stroke-width:1.0;"/><text fill="#000000" font-family="sans-serif" font-size="10" lengthAdjust="spacing" textLength="50" x="675.5" y="469.4902">&#1088;&#1077;&#1072;&#1083;&#1080;&#1079;&#1091;&#1077;&#1090;</text><text fill="#000000" font-family="sans-serif" font-size="10" lengthAdjust="spacing" textLength="77" x="662" y="482.0684">&#1082;&#1086;&#1085;&#1077;&#1095;&#1085;&#1099;&#1077; &#1090;&#1086;&#1095;&#1082;&#1080;</text></g><!--reverse link IF_REST to COMP_SPA--><g id="link_IF_REST_COMP_SPA"><path d="M692.5825,552.3244 C689.1025,566.8544 683.26,591.8694 678,618.1094 C667.9,668.4994 657.9,726.8594 651.6,764.9094 " fill="none" id="IF_REST-backto-COMP_SPA" style="stroke:#4A5568;stroke-width:1.0;stroke-dasharray:7.0,7.0;"/><polygon fill="#4A5568" points="693.98,546.4894,687.9938,554.3102,692.8154,551.3519,695.7737,556.1735,693.98,546.4894" style="stroke:#4A5568;stroke-width:1.0;"/><text fill="#000000" font-family="sans-serif" font-size="10" lengthAdjust="spacing" textLength="105" x="680" y="629.4902">&#1086;&#1073;&#1088;&#1072;&#1097;&#1072;&#1077;&#1090;&#1089;&#1103; &#1087;&#1086; REST</text><text fill="#000000" font-family="sans-serif" font-size="10" lengthAdjust="spacing" textLength="107" x="679" y="642.0684">(&#1090;&#1088;&#1077;&#1073;&#1091;&#1077;&#1084;&#1099;&#1081; &#1082;&#1086;&#1085;&#1090;&#1088;&#1072;&#1082;&#1090;)</text></g><!--reverse link COMP_LAYOUT to COMP_API--><g id="link_COMP_LAYOUT_COMP_API"><path d="M305.7604,197.5269 C373.4904,234.3769 467.63,285.6194 535.39,322.4994 " fill="none" id="COMP_LAYOUT-backto-COMP_API" style="stroke:#4A5568;stroke-width:1.0;stroke-dasharray:7.0,7.0;"/><polygon fill="#4A5568" points="300.49,194.6594,306.484,202.4742,304.882,197.049,310.3073,195.447,300.49,194.6594" style="stroke:#4A5568;stroke-width:1.0;"/><text fill="#000000" font-family="sans-serif" font-size="10" lengthAdjust="spacing" textLength="68" x="432" y="262.9902">/process-bpmn</text></g><!--reverse link COMP_JSON to COMP_API--><g id="link_COMP_JSON_COMP_API"><path d="M575.8255,200.7708 C583.5755,237.6008 593.69,285.6194 601.43,322.4194 " fill="none" id="COMP_JSON-backto-COMP_API" style="stroke:#4A5568;stroke-width:1.0;stroke-dasharray:7.0,7.0;"/><polygon fill="#4A5568" points="574.59,194.8994,572.529,204.5302,575.6196,199.7922,580.3575,202.8828,574.59,194.8994" style="stroke:#4A5568;stroke-width:1.0;"/><text fill="#000000" font-family="sans-serif" font-size="10" lengthAdjust="spacing" textLength="70" x="590" y="262.9902">/bpmn_to_json</text></g><!--link COMP_LAYOUT to ART_LAYOUT--><g id="link_COMP_LAYOUT_ART_LAYOUT"><path d="M205.9,194.8994 C187.16,232.9194 162.1111,283.7368 143.9811,320.5468 " fill="none" id="COMP_LAYOUT-to-ART_LAYOUT" style="stroke:#4A5568;stroke-width:1.0;stroke-dasharray:7.0,7.0;"/><polygon fill="#4A5568" points="141.33,325.9294,148.895,319.6229,143.5392,321.4439,141.7182,316.0882,141.33,325.9294" style="stroke:#4A5568;stroke-width:1.0;"/><text fill="#000000" font-family="sans-serif" font-size="10" lengthAdjust="spacing" textLength="51" x="179" y="262.9902">subprocess</text></g><!--reverse link ART_PY to COMP_API--><g id="link_ART_PY_COMP_API"><path d="M412.51,364.1094 C448.21,364.1094 484.91,364.1094 521.95,364.1094 " fill="none" id="ART_PY-backto-COMP_API" style="stroke:#4A5568;stroke-width:1.0;stroke-dasharray:7.0,7.0;"/><polygon fill="#4A5568" points="406.51,364.1094,415.51,368.1094,411.51,364.1094,415.51,360.1094,406.51,364.1094" style="stroke:#4A5568;stroke-width:1.0;"/><text fill="#000000" font-family="sans-serif" font-size="10" lengthAdjust="spacing" textLength="17" x="455.75" y="345.4902">&#1082;&#1086;&#1076;</text><text fill="#000000" font-family="sans-serif" font-size="10" lengthAdjust="spacing" textLength="59" x="434.75" y="358.0684">&#1087;&#1088;&#1080;&#1083;&#1086;&#1078;&#1077;&#1085;&#1080;&#1103;</text></g><!--link COMP_SPA to COMP_BPMNJS--><g id="link_COMP_SPA_COMP_BPMNJS"><path d="M645,848.3994 C645,885.2294 645,933.1194 645,969.9194 " fill="none" id="COMP_SPA-to-COMP_BPMNJS" style="stroke:#4A5568;stroke-width:1.0;stroke-dasharray:7.0,7.0;"/><polygon fill="#4A5568" points="645,975.9194,649,966.9194,645,970.9194,641,966.9194,645,975.9194" style="stroke:#4A5568;stroke-width:1.0;"/><text fill="#000000" font-family="sans-serif" font-size="10" lengthAdjust="spacing" textLength="61" x="646" y="916.4902">&#1093;&#1086;&#1083;&#1089;&#1090; BPMN</text></g><!--reverse link ART_FE to COMP_SPA--><g id="link_ART_FE_COMP_SPA"><path d="M441.32,806.6094 C469.38,806.6094 495.69,806.6094 526.4,806.6094 " fill="none" id="ART_FE-backto-COMP_SPA" style="stroke:#4A5568;stroke-width:1.0;stroke-dasharray:7.0,7.0;"/><polygon fill="#4A5568" points="435.32,806.6094,444.32,810.6094,440.32,806.6094,444.32,802.6094,435.32,806.6094" style="stroke:#4A5568;stroke-width:1.0;"/><text fill="#000000" font-family="sans-serif" font-size="10" lengthAdjust="spacing" textLength="35" x="463.25" y="800.9902">&#1089;&#1073;&#1086;&#1088;&#1082;&#1072;</text></g><!--SRC=[jLVTRXDN4BxVfnYb5xNJE8KaXYYYI8vZ2n0aLkoYegQADl4cCJYxrkw94AsG206Y2YHKsYikMhL8lU76CJ4s2JPIdk3iA_0a_MPsRQ__W9icadDypfoP-URdcnDLKcMB5dCtbYdbUILFcRQYZm_-87sicxggt_WFyFaUlrNI9xgDnGTyjdHTj_o7MDKCuslIBtJTVu3lJSXKzQd_319L_pdv-_vZYEBs0arE-liifclyYQDWuJ_s3oOdwUEJ5v2uKYZaQ3MJBn2R8Vz9O0TI1mGjTVrM7sFf7-Y6FXN7cjsxC7qA1-G2Qs_XIuDrmy6OFi91WyhMbaee9-6MjdVK5Fc7Wk78VqeCYVNMy1tGOVCPGG63P2SVuVexVr_SqiS4TMq91uk_GsGaJBpe-Q2hSKCv5L8ERJXAERjKBBdMfYevjc5uTqfsnNJDNV9spA9pjsHlqvPPzgp8oOvf5- -w9QKiU-ZCTegMPrKecOnikgPzPsYpOcxUCRUjlBg7HBDzqzukHrLjEhiLnxQGzryCeaM8RxlEdbrCEsN7fQyoyvbCzYAVE6xHSiFTsQLaQluSThEEhSAzywcPnTcqSN_0pT5gitFPYzd5GRN9zCLqwaA_sfdqR2RPCHN0s73AnJuxfgjAM-Rc60XP-HcqDPzDpIxEVnQ2wRhENT4RoiobaiaBdNlvqiyMdJyt05fPOnrPoYO77LcQIy_DfuOKeco_w_xG-MdIhr3rTNrAqJv2NyQmwhRIKEFwJ-CHFOPaP4B_7Ub4_G7B9WgtZVQgIz-yMxDZkNjgnx7f6rh6bUdR7ci-bPwMSc_Y6cgSn4w3cnDVJtGpFa6cHyihIvdrV6RrPcOLeG0svMnRQiTo9J0KARgUBqtkhwgkSKyEQbspcQCcwDAbxitBbzbGUkL6RlrwwjRAzuLFAsQGTMdsG3NtRfN1-iy3vVJ3ZUj29TVoAsCjyHdit1y1gLk3RBWR8Hf64YkRzvmzjLvndKtByn3QE9lht0-ifLOBKLWHvNz1tmbh6v4unX8cBW6JRMPBPgGn1dAtEbZ0uQz8KlzMo1rK5bGGAtq2VknGRZ0SXEy43xDyM7qH-eV42FOSJ-96V-8mJlHHOaHTrYcLkmg8MTDJMCN7fGbdGnqqWmvwoREBvmd7416KKSE8u1pljlKRZ9s8awZv6XnzpoZXZl-SeueDY8LZBi0C3D4kYyLfeZlBmlBgpbTfaAlPTJup364BcKVaR7MtYGVQeBT0jO1nHl3u7vpdLl85JBzlmpfAR5HsxQ53tbnNplfj3sF7iel2JWEHcOrmI_y44su91-aNCilBtdrc2a2e4mzBdk6zF2A7GITA5Q168hIHldurirm8Q2Eeov3T_i_A7AZ0Fm6sXKplX-5dOuUymsX6rEMQVVQwFyjdfnIxkMTrkdjKbUPpgS_no95GuGdpx2EfJt4SDezr5J6yMLBMcDxEPeRuy3TuUYJfQOiMLijEGn6NIU8JhhBOjRomXVIL_XVtyHP2K4x28I3Pvdu-PffRw9jIGMw6drD1oYBljfWylrhysXnAtHI5hxYpryWv5Xm4X5dNf7qbKXoWWxWH7J-97tTAnQ9b_uHdbfteTbZuT_0uKe62ytU1L0lVisUl-IsBxczsAmEEiG-1PmW9OwuBziCE9t-AEjhiVL31_9Zki1Sb-hob1PBnLPLGDHY-_t3DblijCTNod_83zc6OagRHgJ1Ax5Mcfoz7D7M6eFyhzDMvJSL545_0LZ511WQMAAFDWuTj7nV5msS_eXrAjqA2vdSzi3P0Y0Fl54bsZRYhf9DgylcUUiyNFXEQcmhVuuT1E3coZI2tucCaJ06uo2i00FiPSQGipt6MxAF7g1Q9Fult1Z7alRsDK7T4BVzJqP7CtU80Sx2EaPuHy_bBuZR0mH8tJW-NZcXiX4GWvJ154idwKCT0KozOKWaTJ96MvifwB1M9WXOsYCX7aMKp93tTPIJZFm00]--></g></svg>